<svg xmlns="http://www.w3.org/2000/svg" xmlns:xlink="http://www.w3.org/1999/xlink" width="16" height="9" viewBox="0 0 16 9">
    <defs>
        <path id="a" d="M.002 9V.025H15.969V9H7.985z"/>
    </defs>
    <g fill="none" fill-rule="evenodd">
        <mask id="b" fill="#fff">
            <use xlink:href="#a"/>
        </mask>
        <path fill="#555A63" d="M15.198 4.862a9.214 9.214 0 0 1-4.19 2.987 4.462 4.462 0 0 0 1.503-3.337 4.462 4.462 0 0 0-1.504-3.338 9.215 9.215 0 0 1 4.19 2.989.564.564 0 0 1 0 .699zM3.906 7.407A9.215 9.215 0 0 1 .771 4.862a.564.564 0 0 1 0-.7 9.214 9.214 0 0 1 4.19-2.988 4.462 4.462 0 0 0-1.503 3.338c0 1.324.581 2.516 1.504 3.338a9.202 9.202 0 0 1-1.056-.443zm4.078.95c-2.137 0-3.876-1.725-3.876-3.845S5.847.668 7.984.668c2.138 0 3.877 1.724 3.877 3.844s-1.739 3.845-3.877 3.845zm7.726-4.59a9.867 9.867 0 0 0-3.357-2.726A9.752 9.752 0 0 0 7.86.025a9.752 9.752 0 0 0-4.245 1.016A9.867 9.867 0 0 0 .259 3.767a1.203 1.203 0 0 0 0 1.49 9.868 9.868 0 0 0 3.357 2.726A9.752 9.752 0 0 0 8.108 9a9.752 9.752 0 0 0 4.245-1.016 9.867 9.867 0 0 0 3.357-2.725 1.203 1.203 0 0 0 0-1.491z" mask="url(#b)"/>
        <path fill="#555A63" d="M7.984 5.513c-.556 0-1.01-.449-1.01-1 0-.553.454-1.002 1.01-1.002.557 0 1.01.45 1.01 1.001 0 .552-.453 1.001-1.01 1.001zm0-2.646c-.914 0-1.659.738-1.659 1.645s.745 1.645 1.66 1.645c.914 0 1.659-.738 1.659-1.645s-.745-1.645-1.66-1.645z"/>
    </g>
</svg>
