<svg xmlns="http://www.w3.org/2000/svg" width="12" height="12" viewBox="0 0 12 12">
    <path fill="#555A63" fill-rule="nonzero" d="M8.33 7.819a4.572 4.572 0 0 0 1.283-3.162C9.613 2.093 7.46 0 4.806 0 2.153 0 0 2.093 0 4.657s2.153 4.658 4.806 4.658c1.08 0 2.074-.344 2.878-.927l3.574 3.463a.436.436 0 0 0 .305.126.424.424 0 0 0 .304-.126.419.419 0 0 0 0-.597L8.33 7.819zM.87 4.657c0-2.1 1.762-3.814 3.936-3.814 2.168 0 3.937 1.707 3.937 3.814 0 2.108-1.762 3.815-3.937 3.815C2.632 8.472.87 6.758.87 4.657z"/>
</svg>
