<svg xmlns="http://www.w3.org/2000/svg" xmlns:xlink="http://www.w3.org/1999/xlink" width="719" height="19" viewBox="0 0 719 19">
    <defs>
        <path id="a" d="M0 18.751h69.631V.111H0z"/>
        <path id="c" d="M0 18.751h69.631V.111H0z"/>
        <path id="e" d="M0 18.751h69.631V.111H0z"/>
        <path id="g" d="M0 18.751h69.631V.111H0z"/>
        <path id="i" d="M0 18.751h69.631V.111H0z"/>
        <path id="k" d="M0 18.751h69.631V.111H0z"/>
        <path id="m" d="M0 18.751h69.631V.111H0z"/>
        <path id="o" d="M0 18.751h69.631V.111H0z"/>
        <path id="q" d="M0 18.751h69.631V.111H0z"/>
        <path id="s" d="M0 18.751h69.631V.111H0z"/>
    </defs>
    <g fill="none" fill-rule="evenodd">
        <path fill="#1B4594" d="M45.263 18.778h2.02V.242h-2.02zM49.75 8.318h2.02V.24h-2.02zM49.75 18.777h2.02v-6.185h-2.02z"/>
        <g transform="translate(.202 .027)">
            <path fill="#FFC937" d="M51.568 10.409c0 .515-.452.932-1.01.932s-1.01-.417-1.01-.932c0-.515.452-.933 1.01-.933s1.01.418 1.01.933z"/>
            <mask id="b" fill="#fff">
                <use xlink:href="#a"/>
            </mask>
            <path fill="#1B4594" d="M36.088 15.657h2.019V.214h-2.02z" mask="url(#b)"/>
            <path fill="#FFC937" d="M38.107 17.818c0 .515-.452.932-1.01.932-.557 0-1.01-.417-1.01-.932 0-.515.453-.933 1.01-.933.558 0 1.01.418 1.01.933" mask="url(#b)"/>
            <path fill="#1B4594" d="M40.575 6.319h2.019V.213h-2.02zM40.575 18.75h2.019v-8.086h-2.02z" mask="url(#b)"/>
            <path fill="#FFC937" d="M42.594 8.508c0 .515-.452.932-1.01.932-.557 0-1.01-.417-1.01-.932 0-.515.453-.933 1.01-.933.558 0 1.01.418 1.01.933" mask="url(#b)"/>
            <path fill="#1B4594" d="M63.125 18.75h2.02V.216h-2.02zM67.612 8.29h2.02V.214h-2.02zM67.612 18.75h2.02v-6.184h-2.02z" mask="url(#b)"/>
            <path fill="#FFC937" d="M69.631 10.41c0 .514-.452.932-1.01.932-.557 0-1.01-.418-1.01-.933 0-.515.453-.932 1.01-.932.558 0 1.01.417 1.01.932" mask="url(#b)"/>
            <path fill="#1B4594" d="M54.151 15.657h2.02V.214h-2.02z" mask="url(#b)"/>
            <path fill="#FFC937" d="M56.17 17.818c0 .515-.452.933-1.01.933-.557 0-1.009-.418-1.009-.933 0-.515.452-.932 1.01-.932.557 0 1.01.417 1.01.932" mask="url(#b)"/>
            <path fill="#1B4594" d="M58.638 6.32h2.02V.212h-2.02zM58.638 18.751h2.02v-8.086h-2.02z" mask="url(#b)"/>
            <path fill="#FFC937" d="M60.657 8.508c0 .515-.452.933-1.01.933-.557 0-1.009-.418-1.009-.933 0-.514.452-.932 1.01-.932.557 0 1.01.418 1.01.932" mask="url(#b)"/>
            <path fill="#1B4594" d="M8.974 18.648h2.02V.112h-2.02zM13.46 8.188h2.02V.11h-2.02zM13.46 18.647h2.02v-6.185h-2.02z" mask="url(#b)"/>
            <path fill="#FFC937" d="M15.48 10.306c0 .515-.452.933-1.01.933-.557 0-1.01-.418-1.01-.933 0-.515.453-.932 1.01-.932.558 0 1.01.417 1.01.932" mask="url(#b)"/>
            <path fill="#1B4594" d="M0 15.554h2.02V.111H0z" mask="url(#b)"/>
            <path fill="#FFC937" d="M2.02 17.715c0 .515-.453.933-1.01.933-.558 0-1.01-.418-1.01-.933 0-.515.452-.932 1.01-.932.557 0 1.01.417 1.01.932" mask="url(#b)"/>
            <path fill="#1B4594" d="M4.487 6.216h2.02V.11h-2.02zM4.487 18.648h2.02v-8.086h-2.02z" mask="url(#b)"/>
            <path fill="#FFC937" d="M6.506 8.405c0 .515-.452.933-1.01.933-.557 0-1.01-.418-1.01-.933 0-.515.453-.932 1.01-.932.558 0 1.01.417 1.01.932" mask="url(#b)"/>
            <path fill="#1B4594" d="M27.037 18.648h2.02V.112h-2.02zM31.524 8.188h2.02V.111h-2.02zM31.524 18.648h2.02v-6.185h-2.02z" mask="url(#b)"/>
            <path fill="#FFC937" d="M33.544 10.307c0 .515-.452.932-1.01.932s-1.01-.417-1.01-.932c0-.515.452-.933 1.01-.933s1.01.418 1.01.933" mask="url(#b)"/>
            <path fill="#1B4594" d="M18.064 15.555h2.019V.112h-2.02z" mask="url(#b)"/>
            <path fill="#FFC937" d="M20.083 17.716c0 .515-.452.932-1.01.932-.557 0-1.01-.417-1.01-.932 0-.515.453-.933 1.01-.933.558 0 1.01.418 1.01.933" mask="url(#b)"/>
            <path fill="#1B4594" d="M22.55 6.217h2.02V.11h-2.02zM22.55 18.648h2.02v-8.086h-2.02z" mask="url(#b)"/>
            <path fill="#FFC937" d="M24.57 8.406c0 .515-.452.932-1.01.932s-1.01-.417-1.01-.932c0-.515.452-.933 1.01-.933s1.01.418 1.01.933" mask="url(#b)"/>
        </g>
        <path fill="#1B4594" d="M117.383 18.778h2.02V.242h-2.02zM121.87 8.318h2.02V.24h-2.02zM121.87 18.777h2.02v-6.185h-2.02z"/>
        <g transform="translate(72.322 .027)">
            <path fill="#FFC937" d="M51.568 10.409c0 .515-.452.932-1.01.932s-1.01-.417-1.01-.932c0-.515.452-.933 1.01-.933s1.01.418 1.01.933z"/>
            <mask id="d" fill="#fff">
                <use xlink:href="#c"/>
            </mask>
            <path fill="#1B4594" d="M36.088 15.657h2.019V.214h-2.02z" mask="url(#d)"/>
            <path fill="#FFC937" d="M38.107 17.818c0 .515-.452.932-1.01.932-.557 0-1.01-.417-1.01-.932 0-.515.453-.933 1.01-.933.558 0 1.01.418 1.01.933" mask="url(#d)"/>
            <path fill="#1B4594" d="M40.575 6.319h2.019V.213h-2.02zM40.575 18.75h2.019v-8.086h-2.02z" mask="url(#d)"/>
            <path fill="#FFC937" d="M42.594 8.508c0 .515-.452.932-1.01.932-.557 0-1.01-.417-1.01-.932 0-.515.453-.933 1.01-.933.558 0 1.01.418 1.01.933" mask="url(#d)"/>
            <path fill="#1B4594" d="M63.125 18.75h2.02V.216h-2.02zM67.612 8.29h2.02V.214h-2.02zM67.612 18.75h2.02v-6.184h-2.02z" mask="url(#d)"/>
            <path fill="#FFC937" d="M69.631 10.41c0 .514-.452.932-1.01.932-.557 0-1.01-.418-1.01-.933 0-.515.453-.932 1.01-.932.558 0 1.01.417 1.01.932" mask="url(#d)"/>
            <path fill="#1B4594" d="M54.151 15.657h2.02V.214h-2.02z" mask="url(#d)"/>
            <path fill="#FFC937" d="M56.17 17.818c0 .515-.452.933-1.01.933-.557 0-1.009-.418-1.009-.933 0-.515.452-.932 1.01-.932.557 0 1.01.417 1.01.932" mask="url(#d)"/>
            <path fill="#1B4594" d="M58.638 6.32h2.02V.212h-2.02zM58.638 18.751h2.02v-8.086h-2.02z" mask="url(#d)"/>
            <path fill="#FFC937" d="M60.657 8.508c0 .515-.452.933-1.01.933-.557 0-1.009-.418-1.009-.933 0-.514.452-.932 1.01-.932.557 0 1.01.418 1.01.932" mask="url(#d)"/>
            <path fill="#1B4594" d="M8.974 18.648h2.02V.112h-2.02zM13.46 8.188h2.02V.11h-2.02zM13.46 18.647h2.02v-6.185h-2.02z" mask="url(#d)"/>
            <path fill="#FFC937" d="M15.48 10.306c0 .515-.452.933-1.01.933-.557 0-1.01-.418-1.01-.933 0-.515.453-.932 1.01-.932.558 0 1.01.417 1.01.932" mask="url(#d)"/>
            <path fill="#1B4594" d="M0 15.554h2.02V.111H0z" mask="url(#d)"/>
            <path fill="#FFC937" d="M2.02 17.715c0 .515-.453.933-1.01.933-.558 0-1.01-.418-1.01-.933 0-.515.452-.932 1.01-.932.557 0 1.01.417 1.01.932" mask="url(#d)"/>
            <path fill="#1B4594" d="M4.487 6.216h2.02V.11h-2.02zM4.487 18.648h2.02v-8.086h-2.02z" mask="url(#d)"/>
            <path fill="#FFC937" d="M6.506 8.405c0 .515-.452.933-1.01.933-.557 0-1.01-.418-1.01-.933 0-.515.453-.932 1.01-.932.558 0 1.01.417 1.01.932" mask="url(#d)"/>
            <path fill="#1B4594" d="M27.037 18.648h2.02V.112h-2.02zM31.524 8.188h2.02V.111h-2.02zM31.524 18.648h2.02v-6.185h-2.02z" mask="url(#d)"/>
            <path fill="#FFC937" d="M33.544 10.307c0 .515-.452.932-1.01.932s-1.01-.417-1.01-.932c0-.515.452-.933 1.01-.933s1.01.418 1.01.933" mask="url(#d)"/>
            <path fill="#1B4594" d="M18.064 15.555h2.019V.112h-2.02z" mask="url(#d)"/>
            <path fill="#FFC937" d="M20.083 17.716c0 .515-.452.932-1.01.932-.557 0-1.01-.417-1.01-.932 0-.515.453-.933 1.01-.933.558 0 1.01.418 1.01.933" mask="url(#d)"/>
            <path fill="#1B4594" d="M22.55 6.217h2.02V.11h-2.02zM22.55 18.648h2.02v-8.086h-2.02z" mask="url(#d)"/>
            <path fill="#FFC937" d="M24.57 8.406c0 .515-.452.932-1.01.932s-1.01-.417-1.01-.932c0-.515.452-.933 1.01-.933s1.01.418 1.01.933" mask="url(#d)"/>
        </g>
        <g>
            <path fill="#1B4594" d="M189.504 18.778h2.02V.242h-2.02zM193.99 8.318h2.02V.24h-2.02zM193.99 18.777h2.02v-6.185h-2.02z"/>
            <g transform="translate(144.442 .027)">
                <path fill="#FFC937" d="M51.568 10.409c0 .515-.452.932-1.01.932s-1.01-.417-1.01-.932c0-.515.452-.933 1.01-.933s1.01.418 1.01.933z"/>
                <mask id="f" fill="#fff">
                    <use xlink:href="#e"/>
                </mask>
                <path fill="#1B4594" d="M36.088 15.657h2.019V.214h-2.02z" mask="url(#f)"/>
                <path fill="#FFC937" d="M38.107 17.818c0 .515-.452.932-1.01.932-.557 0-1.01-.417-1.01-.932 0-.515.453-.933 1.01-.933.558 0 1.01.418 1.01.933" mask="url(#f)"/>
                <path fill="#1B4594" d="M40.575 6.319h2.019V.213h-2.02zM40.575 18.75h2.019v-8.086h-2.02z" mask="url(#f)"/>
                <path fill="#FFC937" d="M42.594 8.508c0 .515-.452.932-1.01.932-.557 0-1.01-.417-1.01-.932 0-.515.453-.933 1.01-.933.558 0 1.01.418 1.01.933" mask="url(#f)"/>
                <path fill="#1B4594" d="M63.125 18.75h2.02V.216h-2.02zM67.612 8.29h2.02V.214h-2.02zM67.612 18.75h2.02v-6.184h-2.02z" mask="url(#f)"/>
                <path fill="#FFC937" d="M69.631 10.41c0 .514-.452.932-1.01.932-.557 0-1.01-.418-1.01-.933 0-.515.453-.932 1.01-.932.558 0 1.01.417 1.01.932" mask="url(#f)"/>
                <path fill="#1B4594" d="M54.151 15.657h2.02V.214h-2.02z" mask="url(#f)"/>
                <path fill="#FFC937" d="M56.17 17.818c0 .515-.452.933-1.01.933-.557 0-1.009-.418-1.009-.933 0-.515.452-.932 1.01-.932.557 0 1.01.417 1.01.932" mask="url(#f)"/>
                <path fill="#1B4594" d="M58.638 6.32h2.02V.212h-2.02zM58.638 18.751h2.02v-8.086h-2.02z" mask="url(#f)"/>
                <path fill="#FFC937" d="M60.657 8.508c0 .515-.452.933-1.01.933-.557 0-1.009-.418-1.009-.933 0-.514.452-.932 1.01-.932.557 0 1.01.418 1.01.932" mask="url(#f)"/>
                <path fill="#1B4594" d="M8.974 18.648h2.02V.112h-2.02zM13.46 8.188h2.02V.11h-2.02zM13.46 18.647h2.02v-6.185h-2.02z" mask="url(#f)"/>
                <path fill="#FFC937" d="M15.48 10.306c0 .515-.452.933-1.01.933-.557 0-1.01-.418-1.01-.933 0-.515.453-.932 1.01-.932.558 0 1.01.417 1.01.932" mask="url(#f)"/>
                <path fill="#1B4594" d="M0 15.554h2.02V.111H0z" mask="url(#f)"/>
                <path fill="#FFC937" d="M2.02 17.715c0 .515-.453.933-1.01.933-.558 0-1.01-.418-1.01-.933 0-.515.452-.932 1.01-.932.557 0 1.01.417 1.01.932" mask="url(#f)"/>
                <path fill="#1B4594" d="M4.487 6.216h2.02V.11h-2.02zM4.487 18.648h2.02v-8.086h-2.02z" mask="url(#f)"/>
                <path fill="#FFC937" d="M6.506 8.405c0 .515-.452.933-1.01.933-.557 0-1.01-.418-1.01-.933 0-.515.453-.932 1.01-.932.558 0 1.01.417 1.01.932" mask="url(#f)"/>
                <path fill="#1B4594" d="M27.037 18.648h2.02V.112h-2.02zM31.524 8.188h2.02V.111h-2.02zM31.524 18.648h2.02v-6.185h-2.02z" mask="url(#f)"/>
                <path fill="#FFC937" d="M33.544 10.307c0 .515-.452.932-1.01.932s-1.01-.417-1.01-.932c0-.515.452-.933 1.01-.933s1.01.418 1.01.933" mask="url(#f)"/>
                <path fill="#1B4594" d="M18.064 15.555h2.019V.112h-2.02z" mask="url(#f)"/>
                <path fill="#FFC937" d="M20.083 17.716c0 .515-.452.932-1.01.932-.557 0-1.01-.417-1.01-.932 0-.515.453-.933 1.01-.933.558 0 1.01.418 1.01.933" mask="url(#f)"/>
                <path fill="#1B4594" d="M22.55 6.217h2.02V.11h-2.02zM22.55 18.648h2.02v-8.086h-2.02z" mask="url(#f)"/>
                <path fill="#FFC937" d="M24.57 8.406c0 .515-.452.932-1.01.932s-1.01-.417-1.01-.932c0-.515.452-.933 1.01-.933s1.01.418 1.01.933" mask="url(#f)"/>
            </g>
        </g>
        <g>
            <path fill="#1B4594" d="M261.624 18.778h2.02V.242h-2.02zM266.111 8.318h2.02V.24h-2.02zM266.111 18.777h2.02v-6.185h-2.02z"/>
            <g transform="translate(216.563 .027)">
                <path fill="#FFC937" d="M51.568 10.409c0 .515-.452.932-1.01.932s-1.01-.417-1.01-.932c0-.515.452-.933 1.01-.933s1.01.418 1.01.933z"/>
                <mask id="h" fill="#fff">
                    <use xlink:href="#g"/>
                </mask>
                <path fill="#1B4594" d="M36.088 15.657h2.019V.214h-2.02z" mask="url(#h)"/>
                <path fill="#FFC937" d="M38.107 17.818c0 .515-.452.932-1.01.932-.557 0-1.01-.417-1.01-.932 0-.515.453-.933 1.01-.933.558 0 1.01.418 1.01.933" mask="url(#h)"/>
                <path fill="#1B4594" d="M40.575 6.319h2.019V.213h-2.02zM40.575 18.75h2.019v-8.086h-2.02z" mask="url(#h)"/>
                <path fill="#FFC937" d="M42.594 8.508c0 .515-.452.932-1.01.932-.557 0-1.01-.417-1.01-.932 0-.515.453-.933 1.01-.933.558 0 1.01.418 1.01.933" mask="url(#h)"/>
                <path fill="#1B4594" d="M63.125 18.75h2.02V.216h-2.02zM67.612 8.29h2.02V.214h-2.02zM67.612 18.75h2.02v-6.184h-2.02z" mask="url(#h)"/>
                <path fill="#FFC937" d="M69.631 10.41c0 .514-.452.932-1.01.932-.557 0-1.01-.418-1.01-.933 0-.515.453-.932 1.01-.932.558 0 1.01.417 1.01.932" mask="url(#h)"/>
                <path fill="#1B4594" d="M54.151 15.657h2.02V.214h-2.02z" mask="url(#h)"/>
                <path fill="#FFC937" d="M56.17 17.818c0 .515-.452.933-1.01.933-.557 0-1.009-.418-1.009-.933 0-.515.452-.932 1.01-.932.557 0 1.01.417 1.01.932" mask="url(#h)"/>
                <path fill="#1B4594" d="M58.638 6.32h2.02V.212h-2.02zM58.638 18.751h2.02v-8.086h-2.02z" mask="url(#h)"/>
                <path fill="#FFC937" d="M60.657 8.508c0 .515-.452.933-1.01.933-.557 0-1.009-.418-1.009-.933 0-.514.452-.932 1.01-.932.557 0 1.01.418 1.01.932" mask="url(#h)"/>
                <path fill="#1B4594" d="M8.974 18.648h2.02V.112h-2.02zM13.46 8.188h2.02V.11h-2.02zM13.46 18.647h2.02v-6.185h-2.02z" mask="url(#h)"/>
                <path fill="#FFC937" d="M15.48 10.306c0 .515-.452.933-1.01.933-.557 0-1.01-.418-1.01-.933 0-.515.453-.932 1.01-.932.558 0 1.01.417 1.01.932" mask="url(#h)"/>
                <path fill="#1B4594" d="M0 15.554h2.02V.111H0z" mask="url(#h)"/>
                <path fill="#FFC937" d="M2.02 17.715c0 .515-.453.933-1.01.933-.558 0-1.01-.418-1.01-.933 0-.515.452-.932 1.01-.932.557 0 1.01.417 1.01.932" mask="url(#h)"/>
                <path fill="#1B4594" d="M4.487 6.216h2.02V.11h-2.02zM4.487 18.648h2.02v-8.086h-2.02z" mask="url(#h)"/>
                <path fill="#FFC937" d="M6.506 8.405c0 .515-.452.933-1.01.933-.557 0-1.01-.418-1.01-.933 0-.515.453-.932 1.01-.932.558 0 1.01.417 1.01.932" mask="url(#h)"/>
                <path fill="#1B4594" d="M27.037 18.648h2.02V.112h-2.02zM31.524 8.188h2.02V.111h-2.02zM31.524 18.648h2.02v-6.185h-2.02z" mask="url(#h)"/>
                <path fill="#FFC937" d="M33.544 10.307c0 .515-.452.932-1.01.932s-1.01-.417-1.01-.932c0-.515.452-.933 1.01-.933s1.01.418 1.01.933" mask="url(#h)"/>
                <path fill="#1B4594" d="M18.064 15.555h2.019V.112h-2.02z" mask="url(#h)"/>
                <path fill="#FFC937" d="M20.083 17.716c0 .515-.452.932-1.01.932-.557 0-1.01-.417-1.01-.932 0-.515.453-.933 1.01-.933.558 0 1.01.418 1.01.933" mask="url(#h)"/>
                <path fill="#1B4594" d="M22.55 6.217h2.02V.11h-2.02zM22.55 18.648h2.02v-8.086h-2.02z" mask="url(#h)"/>
                <path fill="#FFC937" d="M24.57 8.406c0 .515-.452.932-1.01.932s-1.01-.417-1.01-.932c0-.515.452-.933 1.01-.933s1.01.418 1.01.933" mask="url(#h)"/>
            </g>
        </g>
        <g>
            <path fill="#1B4594" d="M333.744 18.778h2.02V.242h-2.02zM338.231 8.318h2.02V.24h-2.02zM338.231 18.777h2.02v-6.185h-2.02z"/>
            <g transform="translate(288.683 .027)">
                <path fill="#FFC937" d="M51.568 10.409c0 .515-.452.932-1.01.932s-1.01-.417-1.01-.932c0-.515.452-.933 1.01-.933s1.01.418 1.01.933z"/>
                <mask id="j" fill="#fff">
                    <use xlink:href="#i"/>
                </mask>
                <path fill="#1B4594" d="M36.088 15.657h2.019V.214h-2.02z" mask="url(#j)"/>
                <path fill="#FFC937" d="M38.107 17.818c0 .515-.452.932-1.01.932-.557 0-1.01-.417-1.01-.932 0-.515.453-.933 1.01-.933.558 0 1.01.418 1.01.933" mask="url(#j)"/>
                <path fill="#1B4594" d="M40.575 6.319h2.019V.213h-2.02zM40.575 18.75h2.019v-8.086h-2.02z" mask="url(#j)"/>
                <path fill="#FFC937" d="M42.594 8.508c0 .515-.452.932-1.01.932-.557 0-1.01-.417-1.01-.932 0-.515.453-.933 1.01-.933.558 0 1.01.418 1.01.933" mask="url(#j)"/>
                <path fill="#1B4594" d="M63.125 18.75h2.02V.216h-2.02zM67.612 8.29h2.02V.214h-2.02zM67.612 18.75h2.02v-6.184h-2.02z" mask="url(#j)"/>
                <path fill="#FFC937" d="M69.631 10.41c0 .514-.452.932-1.01.932-.557 0-1.01-.418-1.01-.933 0-.515.453-.932 1.01-.932.558 0 1.01.417 1.01.932" mask="url(#j)"/>
                <path fill="#1B4594" d="M54.151 15.657h2.02V.214h-2.02z" mask="url(#j)"/>
                <path fill="#FFC937" d="M56.17 17.818c0 .515-.452.933-1.01.933-.557 0-1.009-.418-1.009-.933 0-.515.452-.932 1.01-.932.557 0 1.01.417 1.01.932" mask="url(#j)"/>
                <path fill="#1B4594" d="M58.638 6.32h2.02V.212h-2.02zM58.638 18.751h2.02v-8.086h-2.02z" mask="url(#j)"/>
                <path fill="#FFC937" d="M60.657 8.508c0 .515-.452.933-1.01.933-.557 0-1.009-.418-1.009-.933 0-.514.452-.932 1.01-.932.557 0 1.01.418 1.01.932" mask="url(#j)"/>
                <path fill="#1B4594" d="M8.974 18.648h2.02V.112h-2.02zM13.46 8.188h2.02V.11h-2.02zM13.46 18.647h2.02v-6.185h-2.02z" mask="url(#j)"/>
                <path fill="#FFC937" d="M15.48 10.306c0 .515-.452.933-1.01.933-.557 0-1.01-.418-1.01-.933 0-.515.453-.932 1.01-.932.558 0 1.01.417 1.01.932" mask="url(#j)"/>
                <path fill="#1B4594" d="M0 15.554h2.02V.111H0z" mask="url(#j)"/>
                <path fill="#FFC937" d="M2.02 17.715c0 .515-.453.933-1.01.933-.558 0-1.01-.418-1.01-.933 0-.515.452-.932 1.01-.932.557 0 1.01.417 1.01.932" mask="url(#j)"/>
                <path fill="#1B4594" d="M4.487 6.216h2.02V.11h-2.02zM4.487 18.648h2.02v-8.086h-2.02z" mask="url(#j)"/>
                <path fill="#FFC937" d="M6.506 8.405c0 .515-.452.933-1.01.933-.557 0-1.01-.418-1.01-.933 0-.515.453-.932 1.01-.932.558 0 1.01.417 1.01.932" mask="url(#j)"/>
                <path fill="#1B4594" d="M27.037 18.648h2.02V.112h-2.02zM31.524 8.188h2.02V.111h-2.02zM31.524 18.648h2.02v-6.185h-2.02z" mask="url(#j)"/>
                <path fill="#FFC937" d="M33.544 10.307c0 .515-.452.932-1.01.932s-1.01-.417-1.01-.932c0-.515.452-.933 1.01-.933s1.01.418 1.01.933" mask="url(#j)"/>
                <path fill="#1B4594" d="M18.064 15.555h2.019V.112h-2.02z" mask="url(#j)"/>
                <path fill="#FFC937" d="M20.083 17.716c0 .515-.452.932-1.01.932-.557 0-1.01-.417-1.01-.932 0-.515.453-.933 1.01-.933.558 0 1.01.418 1.01.933" mask="url(#j)"/>
                <path fill="#1B4594" d="M22.55 6.217h2.02V.11h-2.02zM22.55 18.648h2.02v-8.086h-2.02z" mask="url(#j)"/>
                <path fill="#FFC937" d="M24.57 8.406c0 .515-.452.932-1.01.932s-1.01-.417-1.01-.932c0-.515.452-.933 1.01-.933s1.01.418 1.01.933" mask="url(#j)"/>
            </g>
        </g>
        <g>
            <path fill="#1B4594" d="M405.864 18.778h2.02V.242h-2.02zM410.351 8.318h2.02V.24h-2.02zM410.351 18.777h2.02v-6.185h-2.02z"/>
            <g transform="translate(360.803 .027)">
                <path fill="#FFC937" d="M51.568 10.409c0 .515-.452.932-1.01.932s-1.01-.417-1.01-.932c0-.515.452-.933 1.01-.933s1.01.418 1.01.933z"/>
                <mask id="l" fill="#fff">
                    <use xlink:href="#k"/>
                </mask>
                <path fill="#1B4594" d="M36.088 15.657h2.019V.214h-2.02z" mask="url(#l)"/>
                <path fill="#FFC937" d="M38.107 17.818c0 .515-.452.932-1.01.932-.557 0-1.01-.417-1.01-.932 0-.515.453-.933 1.01-.933.558 0 1.01.418 1.01.933" mask="url(#l)"/>
                <path fill="#1B4594" d="M40.575 6.319h2.019V.213h-2.02zM40.575 18.75h2.019v-8.086h-2.02z" mask="url(#l)"/>
                <path fill="#FFC937" d="M42.594 8.508c0 .515-.452.932-1.01.932-.557 0-1.01-.417-1.01-.932 0-.515.453-.933 1.01-.933.558 0 1.01.418 1.01.933" mask="url(#l)"/>
                <path fill="#1B4594" d="M63.125 18.75h2.02V.216h-2.02zM67.612 8.29h2.02V.214h-2.02zM67.612 18.75h2.02v-6.184h-2.02z" mask="url(#l)"/>
                <path fill="#FFC937" d="M69.631 10.41c0 .514-.452.932-1.01.932-.557 0-1.01-.418-1.01-.933 0-.515.453-.932 1.01-.932.558 0 1.01.417 1.01.932" mask="url(#l)"/>
                <path fill="#1B4594" d="M54.151 15.657h2.02V.214h-2.02z" mask="url(#l)"/>
                <path fill="#FFC937" d="M56.17 17.818c0 .515-.452.933-1.01.933-.557 0-1.009-.418-1.009-.933 0-.515.452-.932 1.01-.932.557 0 1.01.417 1.01.932" mask="url(#l)"/>
                <path fill="#1B4594" d="M58.638 6.32h2.02V.212h-2.02zM58.638 18.751h2.02v-8.086h-2.02z" mask="url(#l)"/>
                <path fill="#FFC937" d="M60.657 8.508c0 .515-.452.933-1.01.933-.557 0-1.009-.418-1.009-.933 0-.514.452-.932 1.01-.932.557 0 1.01.418 1.01.932" mask="url(#l)"/>
                <path fill="#1B4594" d="M8.974 18.648h2.02V.112h-2.02zM13.46 8.188h2.02V.11h-2.02zM13.46 18.647h2.02v-6.185h-2.02z" mask="url(#l)"/>
                <path fill="#FFC937" d="M15.48 10.306c0 .515-.452.933-1.01.933-.557 0-1.01-.418-1.01-.933 0-.515.453-.932 1.01-.932.558 0 1.01.417 1.01.932" mask="url(#l)"/>
                <path fill="#1B4594" d="M0 15.554h2.02V.111H0z" mask="url(#l)"/>
                <path fill="#FFC937" d="M2.02 17.715c0 .515-.453.933-1.01.933-.558 0-1.01-.418-1.01-.933 0-.515.452-.932 1.01-.932.557 0 1.01.417 1.01.932" mask="url(#l)"/>
                <path fill="#1B4594" d="M4.487 6.216h2.02V.11h-2.02zM4.487 18.648h2.02v-8.086h-2.02z" mask="url(#l)"/>
                <path fill="#FFC937" d="M6.506 8.405c0 .515-.452.933-1.01.933-.557 0-1.01-.418-1.01-.933 0-.515.453-.932 1.01-.932.558 0 1.01.417 1.01.932" mask="url(#l)"/>
                <path fill="#1B4594" d="M27.037 18.648h2.02V.112h-2.02zM31.524 8.188h2.02V.111h-2.02zM31.524 18.648h2.02v-6.185h-2.02z" mask="url(#l)"/>
                <path fill="#FFC937" d="M33.544 10.307c0 .515-.452.932-1.01.932s-1.01-.417-1.01-.932c0-.515.452-.933 1.01-.933s1.01.418 1.01.933" mask="url(#l)"/>
                <path fill="#1B4594" d="M18.064 15.555h2.019V.112h-2.02z" mask="url(#l)"/>
                <path fill="#FFC937" d="M20.083 17.716c0 .515-.452.932-1.01.932-.557 0-1.01-.417-1.01-.932 0-.515.453-.933 1.01-.933.558 0 1.01.418 1.01.933" mask="url(#l)"/>
                <path fill="#1B4594" d="M22.55 6.217h2.02V.11h-2.02zM22.55 18.648h2.02v-8.086h-2.02z" mask="url(#l)"/>
                <path fill="#FFC937" d="M24.57 8.406c0 .515-.452.932-1.01.932s-1.01-.417-1.01-.932c0-.515.452-.933 1.01-.933s1.01.418 1.01.933" mask="url(#l)"/>
            </g>
            <path fill="#1B4594" d="M477.984 18.778h2.02V.242h-2.02zM482.472 8.318h2.019V.24h-2.02zM482.472 18.777h2.019v-6.185h-2.02z"/>
            <g transform="translate(432.923 .027)">
                <path fill="#FFC937" d="M51.568 10.409c0 .515-.452.932-1.01.932s-1.01-.417-1.01-.932c0-.515.452-.933 1.01-.933s1.01.418 1.01.933z"/>
                <mask id="n" fill="#fff">
                    <use xlink:href="#m"/>
                </mask>
                <path fill="#1B4594" d="M36.088 15.657h2.019V.214h-2.02z" mask="url(#n)"/>
                <path fill="#FFC937" d="M38.107 17.818c0 .515-.452.932-1.01.932-.557 0-1.01-.417-1.01-.932 0-.515.453-.933 1.01-.933.558 0 1.01.418 1.01.933" mask="url(#n)"/>
                <path fill="#1B4594" d="M40.575 6.319h2.019V.213h-2.02zM40.575 18.75h2.019v-8.086h-2.02z" mask="url(#n)"/>
                <path fill="#FFC937" d="M42.594 8.508c0 .515-.452.932-1.01.932-.557 0-1.01-.417-1.01-.932 0-.515.453-.933 1.01-.933.558 0 1.01.418 1.01.933" mask="url(#n)"/>
                <path fill="#1B4594" d="M63.125 18.75h2.02V.216h-2.02zM67.612 8.29h2.02V.214h-2.02zM67.612 18.75h2.02v-6.184h-2.02z" mask="url(#n)"/>
                <path fill="#FFC937" d="M69.631 10.41c0 .514-.452.932-1.01.932-.557 0-1.01-.418-1.01-.933 0-.515.453-.932 1.01-.932.558 0 1.01.417 1.01.932" mask="url(#n)"/>
                <path fill="#1B4594" d="M54.151 15.657h2.02V.214h-2.02z" mask="url(#n)"/>
                <path fill="#FFC937" d="M56.17 17.818c0 .515-.452.933-1.01.933-.557 0-1.009-.418-1.009-.933 0-.515.452-.932 1.01-.932.557 0 1.01.417 1.01.932" mask="url(#n)"/>
                <path fill="#1B4594" d="M58.638 6.32h2.02V.212h-2.02zM58.638 18.751h2.02v-8.086h-2.02z" mask="url(#n)"/>
                <path fill="#FFC937" d="M60.657 8.508c0 .515-.452.933-1.01.933-.557 0-1.009-.418-1.009-.933 0-.514.452-.932 1.01-.932.557 0 1.01.418 1.01.932" mask="url(#n)"/>
                <path fill="#1B4594" d="M8.974 18.648h2.02V.112h-2.02zM13.46 8.188h2.02V.11h-2.02zM13.46 18.647h2.02v-6.185h-2.02z" mask="url(#n)"/>
                <path fill="#FFC937" d="M15.48 10.306c0 .515-.452.933-1.01.933-.557 0-1.01-.418-1.01-.933 0-.515.453-.932 1.01-.932.558 0 1.01.417 1.01.932" mask="url(#n)"/>
                <path fill="#1B4594" d="M0 15.554h2.02V.111H0z" mask="url(#n)"/>
                <path fill="#FFC937" d="M2.02 17.715c0 .515-.453.933-1.01.933-.558 0-1.01-.418-1.01-.933 0-.515.452-.932 1.01-.932.557 0 1.01.417 1.01.932" mask="url(#n)"/>
                <path fill="#1B4594" d="M4.487 6.216h2.02V.11h-2.02zM4.487 18.648h2.02v-8.086h-2.02z" mask="url(#n)"/>
                <path fill="#FFC937" d="M6.506 8.405c0 .515-.452.933-1.01.933-.557 0-1.01-.418-1.01-.933 0-.515.453-.932 1.01-.932.558 0 1.01.417 1.01.932" mask="url(#n)"/>
                <path fill="#1B4594" d="M27.037 18.648h2.02V.112h-2.02zM31.524 8.188h2.02V.111h-2.02zM31.524 18.648h2.02v-6.185h-2.02z" mask="url(#n)"/>
                <path fill="#FFC937" d="M33.544 10.307c0 .515-.452.932-1.01.932s-1.01-.417-1.01-.932c0-.515.452-.933 1.01-.933s1.01.418 1.01.933" mask="url(#n)"/>
                <path fill="#1B4594" d="M18.064 15.555h2.019V.112h-2.02z" mask="url(#n)"/>
                <path fill="#FFC937" d="M20.083 17.716c0 .515-.452.932-1.01.932-.557 0-1.01-.417-1.01-.932 0-.515.453-.933 1.01-.933.558 0 1.01.418 1.01.933" mask="url(#n)"/>
                <path fill="#1B4594" d="M22.55 6.217h2.02V.11h-2.02zM22.55 18.648h2.02v-8.086h-2.02z" mask="url(#n)"/>
                <path fill="#FFC937" d="M24.57 8.406c0 .515-.452.932-1.01.932s-1.01-.417-1.01-.932c0-.515.452-.933 1.01-.933s1.01.418 1.01.933" mask="url(#n)"/>
            </g>
            <g>
                <path fill="#1B4594" d="M550.105 18.778h2.02V.242h-2.02zM554.592 8.318h2.02V.24h-2.02zM554.592 18.777h2.02v-6.185h-2.02z"/>
                <g transform="translate(505.043 .027)">
                    <path fill="#FFC937" d="M51.568 10.409c0 .515-.452.932-1.01.932s-1.01-.417-1.01-.932c0-.515.452-.933 1.01-.933s1.01.418 1.01.933z"/>
                    <mask id="p" fill="#fff">
                        <use xlink:href="#o"/>
                    </mask>
                    <path fill="#1B4594" d="M36.088 15.657h2.019V.214h-2.02z" mask="url(#p)"/>
                    <path fill="#FFC937" d="M38.107 17.818c0 .515-.452.932-1.01.932-.557 0-1.01-.417-1.01-.932 0-.515.453-.933 1.01-.933.558 0 1.01.418 1.01.933" mask="url(#p)"/>
                    <path fill="#1B4594" d="M40.575 6.319h2.019V.213h-2.02zM40.575 18.75h2.019v-8.086h-2.02z" mask="url(#p)"/>
                    <path fill="#FFC937" d="M42.594 8.508c0 .515-.452.932-1.01.932-.557 0-1.01-.417-1.01-.932 0-.515.453-.933 1.01-.933.558 0 1.01.418 1.01.933" mask="url(#p)"/>
                    <path fill="#1B4594" d="M63.125 18.75h2.02V.216h-2.02zM67.612 8.29h2.02V.214h-2.02zM67.612 18.75h2.02v-6.184h-2.02z" mask="url(#p)"/>
                    <path fill="#FFC937" d="M69.631 10.41c0 .514-.452.932-1.01.932-.557 0-1.01-.418-1.01-.933 0-.515.453-.932 1.01-.932.558 0 1.01.417 1.01.932" mask="url(#p)"/>
                    <path fill="#1B4594" d="M54.151 15.657h2.02V.214h-2.02z" mask="url(#p)"/>
                    <path fill="#FFC937" d="M56.17 17.818c0 .515-.452.933-1.01.933-.557 0-1.009-.418-1.009-.933 0-.515.452-.932 1.01-.932.557 0 1.01.417 1.01.932" mask="url(#p)"/>
                    <path fill="#1B4594" d="M58.638 6.32h2.02V.212h-2.02zM58.638 18.751h2.02v-8.086h-2.02z" mask="url(#p)"/>
                    <path fill="#FFC937" d="M60.657 8.508c0 .515-.452.933-1.01.933-.557 0-1.009-.418-1.009-.933 0-.514.452-.932 1.01-.932.557 0 1.01.418 1.01.932" mask="url(#p)"/>
                    <path fill="#1B4594" d="M8.974 18.648h2.02V.112h-2.02zM13.46 8.188h2.02V.11h-2.02zM13.46 18.647h2.02v-6.185h-2.02z" mask="url(#p)"/>
                    <path fill="#FFC937" d="M15.48 10.306c0 .515-.452.933-1.01.933-.557 0-1.01-.418-1.01-.933 0-.515.453-.932 1.01-.932.558 0 1.01.417 1.01.932" mask="url(#p)"/>
                    <path fill="#1B4594" d="M0 15.554h2.02V.111H0z" mask="url(#p)"/>
                    <path fill="#FFC937" d="M2.02 17.715c0 .515-.453.933-1.01.933-.558 0-1.01-.418-1.01-.933 0-.515.452-.932 1.01-.932.557 0 1.01.417 1.01.932" mask="url(#p)"/>
                    <path fill="#1B4594" d="M4.487 6.216h2.02V.11h-2.02zM4.487 18.648h2.02v-8.086h-2.02z" mask="url(#p)"/>
                    <path fill="#FFC937" d="M6.506 8.405c0 .515-.452.933-1.01.933-.557 0-1.01-.418-1.01-.933 0-.515.453-.932 1.01-.932.558 0 1.01.417 1.01.932" mask="url(#p)"/>
                    <path fill="#1B4594" d="M27.037 18.648h2.02V.112h-2.02zM31.524 8.188h2.02V.111h-2.02zM31.524 18.648h2.02v-6.185h-2.02z" mask="url(#p)"/>
                    <path fill="#FFC937" d="M33.544 10.307c0 .515-.452.932-1.01.932s-1.01-.417-1.01-.932c0-.515.452-.933 1.01-.933s1.01.418 1.01.933" mask="url(#p)"/>
                    <path fill="#1B4594" d="M18.064 15.555h2.019V.112h-2.02z" mask="url(#p)"/>
                    <path fill="#FFC937" d="M20.083 17.716c0 .515-.452.932-1.01.932-.557 0-1.01-.417-1.01-.932 0-.515.453-.933 1.01-.933.558 0 1.01.418 1.01.933" mask="url(#p)"/>
                    <path fill="#1B4594" d="M22.55 6.217h2.02V.11h-2.02zM22.55 18.648h2.02v-8.086h-2.02z" mask="url(#p)"/>
                    <path fill="#FFC937" d="M24.57 8.406c0 .515-.452.932-1.01.932s-1.01-.417-1.01-.932c0-.515.452-.933 1.01-.933s1.01.418 1.01.933" mask="url(#p)"/>
                </g>
            </g>
            <g>
                <path fill="#1B4594" d="M622.225 18.778h2.02V.242h-2.02zM626.712 8.318h2.02V.24h-2.02zM626.712 18.777h2.02v-6.185h-2.02z"/>
                <g transform="translate(577.164 .027)">
                    <path fill="#FFC937" d="M51.568 10.409c0 .515-.452.932-1.01.932s-1.01-.417-1.01-.932c0-.515.452-.933 1.01-.933s1.01.418 1.01.933z"/>
                    <mask id="r" fill="#fff">
                        <use xlink:href="#q"/>
                    </mask>
                    <path fill="#1B4594" d="M36.088 15.657h2.019V.214h-2.02z" mask="url(#r)"/>
                    <path fill="#FFC937" d="M38.107 17.818c0 .515-.452.932-1.01.932-.557 0-1.01-.417-1.01-.932 0-.515.453-.933 1.01-.933.558 0 1.01.418 1.01.933" mask="url(#r)"/>
                    <path fill="#1B4594" d="M40.575 6.319h2.019V.213h-2.02zM40.575 18.75h2.019v-8.086h-2.02z" mask="url(#r)"/>
                    <path fill="#FFC937" d="M42.594 8.508c0 .515-.452.932-1.01.932-.557 0-1.01-.417-1.01-.932 0-.515.453-.933 1.01-.933.558 0 1.01.418 1.01.933" mask="url(#r)"/>
                    <path fill="#1B4594" d="M63.125 18.75h2.02V.216h-2.02zM67.612 8.29h2.02V.214h-2.02zM67.612 18.75h2.02v-6.184h-2.02z" mask="url(#r)"/>
                    <path fill="#FFC937" d="M69.631 10.41c0 .514-.452.932-1.01.932-.557 0-1.01-.418-1.01-.933 0-.515.453-.932 1.01-.932.558 0 1.01.417 1.01.932" mask="url(#r)"/>
                    <path fill="#1B4594" d="M54.151 15.657h2.02V.214h-2.02z" mask="url(#r)"/>
                    <path fill="#FFC937" d="M56.17 17.818c0 .515-.452.933-1.01.933-.557 0-1.009-.418-1.009-.933 0-.515.452-.932 1.01-.932.557 0 1.01.417 1.01.932" mask="url(#r)"/>
                    <path fill="#1B4594" d="M58.638 6.32h2.02V.212h-2.02zM58.638 18.751h2.02v-8.086h-2.02z" mask="url(#r)"/>
                    <path fill="#FFC937" d="M60.657 8.508c0 .515-.452.933-1.01.933-.557 0-1.009-.418-1.009-.933 0-.514.452-.932 1.01-.932.557 0 1.01.418 1.01.932" mask="url(#r)"/>
                    <path fill="#1B4594" d="M8.974 18.648h2.02V.112h-2.02zM13.46 8.188h2.02V.11h-2.02zM13.46 18.647h2.02v-6.185h-2.02z" mask="url(#r)"/>
                    <path fill="#FFC937" d="M15.48 10.306c0 .515-.452.933-1.01.933-.557 0-1.01-.418-1.01-.933 0-.515.453-.932 1.01-.932.558 0 1.01.417 1.01.932" mask="url(#r)"/>
                    <path fill="#1B4594" d="M0 15.554h2.02V.111H0z" mask="url(#r)"/>
                    <path fill="#FFC937" d="M2.02 17.715c0 .515-.453.933-1.01.933-.558 0-1.01-.418-1.01-.933 0-.515.452-.932 1.01-.932.557 0 1.01.417 1.01.932" mask="url(#r)"/>
                    <path fill="#1B4594" d="M4.487 6.216h2.02V.11h-2.02zM4.487 18.648h2.02v-8.086h-2.02z" mask="url(#r)"/>
                    <path fill="#FFC937" d="M6.506 8.405c0 .515-.452.933-1.01.933-.557 0-1.01-.418-1.01-.933 0-.515.453-.932 1.01-.932.558 0 1.01.417 1.01.932" mask="url(#r)"/>
                    <path fill="#1B4594" d="M27.037 18.648h2.02V.112h-2.02zM31.524 8.188h2.02V.111h-2.02zM31.524 18.648h2.02v-6.185h-2.02z" mask="url(#r)"/>
                    <path fill="#FFC937" d="M33.544 10.307c0 .515-.452.932-1.01.932s-1.01-.417-1.01-.932c0-.515.452-.933 1.01-.933s1.01.418 1.01.933" mask="url(#r)"/>
                    <path fill="#1B4594" d="M18.064 15.555h2.019V.112h-2.02z" mask="url(#r)"/>
                    <path fill="#FFC937" d="M20.083 17.716c0 .515-.452.932-1.01.932-.557 0-1.01-.417-1.01-.932 0-.515.453-.933 1.01-.933.558 0 1.01.418 1.01.933" mask="url(#r)"/>
                    <path fill="#1B4594" d="M22.55 6.217h2.02V.11h-2.02zM22.55 18.648h2.02v-8.086h-2.02z" mask="url(#r)"/>
                    <path fill="#FFC937" d="M24.57 8.406c0 .515-.452.932-1.01.932s-1.01-.417-1.01-.932c0-.515.452-.933 1.01-.933s1.01.418 1.01.933" mask="url(#r)"/>
                </g>
            </g>
            <g>
                <path fill="#1B4594" d="M694.345 18.778h2.02V.242h-2.02zM698.832 8.318h2.02V.24h-2.02zM698.832 18.777h2.02v-6.185h-2.02z"/>
                <g transform="translate(649.284 .027)">
                    <path fill="#FFC937" d="M51.568 10.409c0 .515-.452.932-1.01.932s-1.01-.417-1.01-.932c0-.515.452-.933 1.01-.933s1.01.418 1.01.933z"/>
                    <mask id="t" fill="#fff">
                        <use xlink:href="#s"/>
                    </mask>
                    <path fill="#1B4594" d="M36.088 15.657h2.019V.214h-2.02z" mask="url(#t)"/>
                    <path fill="#FFC937" d="M38.107 17.818c0 .515-.452.932-1.01.932-.557 0-1.01-.417-1.01-.932 0-.515.453-.933 1.01-.933.558 0 1.01.418 1.01.933" mask="url(#t)"/>
                    <path fill="#1B4594" d="M40.575 6.319h2.019V.213h-2.02zM40.575 18.75h2.019v-8.086h-2.02z" mask="url(#t)"/>
                    <path fill="#FFC937" d="M42.594 8.508c0 .515-.452.932-1.01.932-.557 0-1.01-.417-1.01-.932 0-.515.453-.933 1.01-.933.558 0 1.01.418 1.01.933" mask="url(#t)"/>
                    <path fill="#1B4594" d="M63.125 18.75h2.02V.216h-2.02zM67.612 8.29h2.02V.214h-2.02zM67.612 18.75h2.02v-6.184h-2.02z" mask="url(#t)"/>
                    <path fill="#FFC937" d="M69.631 10.41c0 .514-.452.932-1.01.932-.557 0-1.01-.418-1.01-.933 0-.515.453-.932 1.01-.932.558 0 1.01.417 1.01.932" mask="url(#t)"/>
                    <path fill="#1B4594" d="M54.151 15.657h2.02V.214h-2.02z" mask="url(#t)"/>
                    <path fill="#FFC937" d="M56.17 17.818c0 .515-.452.933-1.01.933-.557 0-1.009-.418-1.009-.933 0-.515.452-.932 1.01-.932.557 0 1.01.417 1.01.932" mask="url(#t)"/>
                    <path fill="#1B4594" d="M58.638 6.32h2.02V.212h-2.02zM58.638 18.751h2.02v-8.086h-2.02z" mask="url(#t)"/>
                    <path fill="#FFC937" d="M60.657 8.508c0 .515-.452.933-1.01.933-.557 0-1.009-.418-1.009-.933 0-.514.452-.932 1.01-.932.557 0 1.01.418 1.01.932" mask="url(#t)"/>
                    <path fill="#1B4594" d="M8.974 18.648h2.02V.112h-2.02zM13.46 8.188h2.02V.11h-2.02zM13.46 18.647h2.02v-6.185h-2.02z" mask="url(#t)"/>
                    <path fill="#FFC937" d="M15.48 10.306c0 .515-.452.933-1.01.933-.557 0-1.01-.418-1.01-.933 0-.515.453-.932 1.01-.932.558 0 1.01.417 1.01.932" mask="url(#t)"/>
                    <path fill="#1B4594" d="M0 15.554h2.02V.111H0z" mask="url(#t)"/>
                    <path fill="#FFC937" d="M2.02 17.715c0 .515-.453.933-1.01.933-.558 0-1.01-.418-1.01-.933 0-.515.452-.932 1.01-.932.557 0 1.01.417 1.01.932" mask="url(#t)"/>
                    <path fill="#1B4594" d="M4.487 6.216h2.02V.11h-2.02zM4.487 18.648h2.02v-8.086h-2.02z" mask="url(#t)"/>
                    <path fill="#FFC937" d="M6.506 8.405c0 .515-.452.933-1.01.933-.557 0-1.01-.418-1.01-.933 0-.515.453-.932 1.01-.932.558 0 1.01.417 1.01.932" mask="url(#t)"/>
                    <path fill="#1B4594" d="M27.037 18.648h2.02V.112h-2.02zM31.524 8.188h2.02V.111h-2.02zM31.524 18.648h2.02v-6.185h-2.02z" mask="url(#t)"/>
                    <path fill="#FFC937" d="M33.544 10.307c0 .515-.452.932-1.01.932s-1.01-.417-1.01-.932c0-.515.452-.933 1.01-.933s1.01.418 1.01.933" mask="url(#t)"/>
                    <path fill="#1B4594" d="M18.064 15.555h2.019V.112h-2.02z" mask="url(#t)"/>
                    <path fill="#FFC937" d="M20.083 17.716c0 .515-.452.932-1.01.932-.557 0-1.01-.417-1.01-.932 0-.515.453-.933 1.01-.933.558 0 1.01.418 1.01.933" mask="url(#t)"/>
                    <path fill="#1B4594" d="M22.55 6.217h2.02V.11h-2.02zM22.55 18.648h2.02v-8.086h-2.02z" mask="url(#t)"/>
                    <path fill="#FFC937" d="M24.57 8.406c0 .515-.452.932-1.01.932s-1.01-.417-1.01-.932c0-.515.452-.933 1.01-.933s1.01.418 1.01.933" mask="url(#t)"/>
                </g>
            </g>
        </g>
    </g>
</svg>
