<svg xmlns="http://www.w3.org/2000/svg" xmlns:xlink="http://www.w3.org/1999/xlink" width="69" height="76" viewBox="0 0 69 76">
    <defs>
        <path id="a" d="M14.963 27.34V.085H.267v27.257z"/>
        <path id="c" d="M0 73.496h68.388V.186H0z"/>
    </defs>
    <g fill="none" fill-rule="evenodd">
        <path fill="#24272E" d="M10.739 46.347v11.56h-6.8v-11.56H0v27.257h3.938V62.362h6.8v11.242h3.883V46.347zM26.742 46.347l-6.05 27.257h4.034l1.136-4.82h5.596l1.108 4.82h4.035l-5.966-27.257h-3.893zm1.904 7.55l1.818 10.101h-3.636l1.818-10.1zM43.164 73.604h3.943V46.347h-3.943z"/>
        <g transform="translate(0 .107)">
            <g transform="translate(53.424 46.156)">
                <mask id="b" fill="#fff">
                    <use xlink:href="#a"/>
                </mask>
                <path fill="#24272E" d="M14.964 18.878c0 5.96-2.261 8.463-7.433 8.463S.267 24.837.267 19.23V8.194c0-5.748 2.007-8.11 7.264-8.11 5.256 0 7.433 2.398 7.433 8.427h-3.9c0-2.644-.51-4.125-3.533-4.125-2.827 0-3.363 1.481-3.363 4.055v10.543c0 2.574.536 4.055 3.363 4.055 2.826 0 3.533-1.481 3.533-4.16h3.9z" mask="url(#b)"/>
            </g>
            <mask id="d" fill="#fff">
                <use xlink:href="#c"/>
            </mask>
            <path fill="#1B4594" d="M36.62 39.713h3.97V.19h-3.97zM45.443 17.41h3.97V.187h-3.97zM45.443 39.713h3.97V26.525h-3.97z" mask="url(#d)"/>
            <path fill="#FFC937" d="M49.413 21.927a1.987 1.987 0 0 1-1.985 1.988 1.987 1.987 0 0 1-1.986-1.988c0-1.098.89-1.989 1.986-1.989s1.985.89 1.985 1.989" mask="url(#d)"/>
            <path fill="#1B4594" d="M18.975 33.117h3.97V.188h-3.97z" mask="url(#d)"/>
            <path fill="#FFC937" d="M22.945 37.725a1.987 1.987 0 0 1-1.985 1.988 1.987 1.987 0 0 1-1.985-1.988c0-1.098.888-1.989 1.985-1.989 1.096 0 1.985.89 1.985 1.989" mask="url(#d)"/>
            <path fill="#1B4594" d="M27.797 13.206h3.97V.187h-3.97zM27.797 39.714h3.97V22.472h-3.97z" mask="url(#d)"/>
            <path fill="#FFC937" d="M31.768 17.874a1.987 1.987 0 0 1-1.985 1.988 1.987 1.987 0 0 1-1.986-1.988c0-1.098.889-1.989 1.986-1.989 1.096 0 1.985.89 1.985 1.989" mask="url(#d)"/>
        </g>
    </g>
</svg>
