<svg xmlns="http://www.w3.org/2000/svg" xmlns:xlink="http://www.w3.org/1999/xlink" width="87" height="26" viewBox="0 0 87 26">
    <defs>
        <path id="a" d="M0 25.155h86.95V.079H0z"/>
    </defs>
    <g fill="none" fill-rule="evenodd">
        <path fill="#154397" d="M11.249 25.342h2.532V.27h-2.532zM16.874 11.194h2.531V.268h-2.531zM16.874 25.342h2.531v-8.366h-2.531z"/>
        <g transform="translate(0 .188)">
            <path fill="#FFCB09" d="M19.405 13.871c0 .697-.566 1.261-1.266 1.261a1.263 1.263 0 0 1-1.265-1.261c0-.697.566-1.261 1.265-1.261.7 0 1.266.564 1.266 1.261z"/>
            <mask id="b" fill="#fff">
                <use xlink:href="#a"/>
            </mask>
            <path fill="#154397" d="M0 20.97h2.531V.08H0z" mask="url(#b)"/>
            <path fill="#FFCB09" d="M2.531 23.893c0 .697-.566 1.261-1.265 1.261A1.263 1.263 0 0 1 0 23.894c0-.698.567-1.262 1.266-1.262.699 0 1.265.564 1.265 1.261" mask="url(#b)"/>
            <path fill="#154397" d="M5.625 8.338h2.531V.08H5.625zM5.625 25.155h2.531V14.217H5.625z" mask="url(#b)"/>
            <path fill="#FFCB09" d="M8.156 11.3c0 .697-.567 1.261-1.266 1.261A1.263 1.263 0 0 1 5.625 11.3c0-.697.566-1.262 1.265-1.262.7 0 1.266.565 1.266 1.262" mask="url(#b)"/>
            <path fill="#24272E" d="M38.013 25.113V14.598h-7.285v10.547H27.99V.08h2.738v11.556h7.285V.08h2.682v25.033zM52.92 4.121l-1.47 8.182-1.102 5.248h5.145l-1.13-5.346-1.443-8.084zm4.382 21.024l-1.102-4.66h-6.53l-1.103 4.66h-2.799L51.563.08h2.743l5.767 25.066h-2.77zM65.387 25.145h2.739V.08h-2.739zM84.367 7.25c-.028-2.977-.233-4.322-3.786-4.322-3.72 0-4.165 1.537-4.165 5.443v8.451c0 3.906.555 5.442 4.165 5.442s3.842-.928 3.842-4.834h2.526c0 4.77-.121 7.715-6.368 7.715s-6.83-2.945-6.83-8.355V8.403c0-5.41 1.11-8.323 6.83-8.323 5.553 0 6.313 2.4 6.368 7.17h-2.582z" mask="url(#b)"/>
        </g>
    </g>
</svg>
